<?xml version="1.0" encoding="UTF-8" standalone="no"?>
<svg
   xmlns:dc="http://purl.org/dc/elements/1.1/"
   xmlns:cc="http://creativecommons.org/ns#"
   xmlns:rdf="http://www.w3.org/1999/02/22-rdf-syntax-ns#"
   xmlns:svg="http://www.w3.org/2000/svg"
   xmlns="http://www.w3.org/2000/svg"
   id="svg1021"
   version="1.1"
   viewBox="0 0 55.132549 7.0555553"
   height="7.0555553mm"
   width="55.132549mm">
  <defs
     id="defs1015" />
  <metadata
     id="metadata1018">
    <rdf:RDF>
      <cc:Work
         rdf:about="">
        <dc:format>image/svg+xml</dc:format>
        <dc:type
           rdf:resource="http://purl.org/dc/dcmitype/StillImage" />
        <dc:title></dc:title>
      </cc:Work>
    </rdf:RDF>
  </metadata>
  <g
     id="layer1"
     style="opacity:1"
     transform="translate(-87.298892,-264.342)">
    <g
       style="font-style:normal;font-variant:normal;font-weight:normal;font-stretch:normal;font-size:7.05556px;line-height:1.25;font-family:Krungthep;-inkscape-font-specification:'Krungthep, Normal';font-variant-ligatures:normal;font-variant-caps:normal;font-variant-numeric:normal;font-variant-east-asian:normal;text-align:center;text-anchor:middle;fill:#999999;fill-opacity:1;stroke-width:0.264583"
       id="text903"
       aria-label=".* Reg Ex Quest">
      <path
         id="path840"
         style="font-style:normal;font-variant:normal;font-weight:normal;font-stretch:normal;font-size:7.05556px;font-family:Krungthep;-inkscape-font-specification:'Krungthep, Normal';font-variant-ligatures:normal;font-variant-caps:normal;font-variant-numeric:normal;font-variant-east-asian:normal;fill:#999999;fill-opacity:1;stroke-width:0.264583"
         d="m 87.298874,269.63367 v -1.17409 h 1.174089 v 1.17409 z" />
      <path
         id="path842"
         style="font-style:normal;font-variant:normal;font-weight:normal;font-stretch:normal;font-size:7.05556px;font-family:Krungthep;-inkscape-font-specification:'Krungthep, Normal';font-variant-ligatures:normal;font-variant-caps:normal;font-variant-numeric:normal;font-variant-east-asian:normal;fill:#999999;fill-opacity:1;stroke-width:0.264583"
         d="m 90.82941,265.59601 v -1.05833 h 0.589801 v 1.05833 l 0.915017,-0.52641 0.294901,0.50436 -0.917774,0.53193 0.917774,0.52916 -0.294901,0.50712 -0.917774,-0.52641 v 1.05834 H 90.82941 v -1.05834 l -0.915018,0.52641 -0.294901,-0.50712 0.917774,-0.52916 -0.917774,-0.53193 0.294901,-0.50436 z" />
      <path
         id="path844"
         style="font-style:normal;font-variant:normal;font-weight:normal;font-stretch:normal;font-size:7.05556px;font-family:Krungthep;-inkscape-font-specification:'Krungthep, Normal';font-variant-ligatures:normal;font-variant-caps:normal;font-variant-numeric:normal;font-variant-east-asian:normal;fill:#999999;fill-opacity:1;stroke-width:0.264583"
         d="M 95.498206,269.63367 V 264.342 h 2.353691 q 0.482313,0 0.826823,0.34726 0.347266,0.34727 0.347266,0.82683 v 0.3197 q 0,0.39412 -0.270096,0.76068 -0.270095,0.3638 -0.903993,0.3638 h 0.584288 q 0.242535,0 0.416168,0.17363 0.173633,0.17364 0.173633,0.41617 v 2.0836 h -1.174089 v -1.76389 q 0,-0.24254 -0.176389,-0.41617 -0.173633,-0.17363 -0.413412,-0.17363 h -0.589801 v 2.35369 z m 1.174089,-2.93798 h 0.589801 q 0.239779,0 0.413412,-0.17364 0.176389,-0.17638 0.176389,-0.41616 v -0.5898 q 0,-0.23978 -0.176389,-0.41066 -0.173633,-0.17363 -0.413412,-0.17363 h -0.589801 z" />
      <path
         id="path846"
         style="font-style:normal;font-variant:normal;font-weight:normal;font-stretch:normal;font-size:7.05556px;font-family:Krungthep;-inkscape-font-specification:'Krungthep, Normal';font-variant-ligatures:normal;font-variant-caps:normal;font-variant-numeric:normal;font-variant-east-asian:normal;fill:#999999;fill-opacity:1;stroke-width:0.264583"
         d="m 103.7251,267.86978 h -2.35369 v 0.5898 q 0,0.23702 0.17088,0.41065 0.17363,0.17364 0.41892,0.17364 h 0.5898 q 0.58429,0 0.58429,-0.58429 h 0.5898 q -0.1378,1.17409 -1.17409,1.17409 h -1.1796 q -0.48231,0 -0.82958,-0.34451 -0.34451,-0.34727 -0.34451,-0.82958 v -1.76389 q 0,-0.48783 0.34727,-0.83234 0.34726,-0.34726 0.82682,-0.34726 h 1.1796 q 0.48231,0 0.82682,0.35002 0.34727,0.34726 0.34727,0.82958 z m -2.35369,-0.5898 h 1.1796 v -0.58429 q 0,-0.24254 -0.17639,-0.41617 -0.17363,-0.17363 -0.41341,-0.17363 -0.24254,0 -0.41617,0.17363 -0.17363,0.17363 -0.17363,0.41617 z" />
      <path
         id="path848"
         style="font-style:normal;font-variant:normal;font-weight:normal;font-stretch:normal;font-size:7.05556px;font-family:Krungthep;-inkscape-font-specification:'Krungthep, Normal';font-variant-ligatures:normal;font-variant-caps:normal;font-variant-numeric:normal;font-variant-east-asian:normal;fill:#999999;fill-opacity:1;stroke-width:0.264583"
         d="m 108.42421,265.51609 v 4.70738 q 0,0.47956 -0.35002,0.82682 -0.34727,0.34727 -0.82407,0.34727 h -1.1796 q -1.03904,0 -1.17409,-1.17409 h 0.5898 q 0.0413,0.58429 0.58429,0.58429 h 0.5898 q 0.23978,0 0.41341,-0.17364 0.17639,-0.17087 0.17639,-0.41065 v -1.1796 q -0.0689,0.5898 -0.5898,0.5898 h -0.5898 q -0.48231,0 -0.82958,-0.34451 -0.34451,-0.34727 -0.34451,-0.82958 v -1.76389 q 0,-0.48783 0.34727,-0.83234 0.34726,-0.34726 0.82682,-0.34726 z m -1.17409,0.5898 h -0.5898 q -0.24253,0 -0.41617,0.17363 -0.17363,0.17363 -0.17363,0.41617 v 1.76389 q 0,0.23702 0.17088,0.41065 0.17363,0.17364 0.41892,0.17364 0.24529,0 0.41617,-0.17364 0.17363,-0.17363 0.17363,-0.41065 z" />
      <path
         id="path850"
         style="font-style:normal;font-variant:normal;font-weight:normal;font-stretch:normal;font-size:7.05556px;font-family:Krungthep;-inkscape-font-specification:'Krungthep, Normal';font-variant-ligatures:normal;font-variant-caps:normal;font-variant-numeric:normal;font-variant-east-asian:normal;fill:#999999;fill-opacity:1;stroke-width:0.264583"
         d="M 111.3181,269.63367 V 264.342 h 2.93798 v 0.5898 h -1.76389 v 1.76389 h 1.1796 v 0.58429 h -1.1796 v 1.76389 h 1.76389 v 0.5898 z" />
      <path
         id="path852"
         style="font-style:normal;font-variant:normal;font-weight:normal;font-stretch:normal;font-size:7.05556px;font-family:Krungthep;-inkscape-font-specification:'Krungthep, Normal';font-variant-ligatures:normal;font-variant-caps:normal;font-variant-numeric:normal;font-variant-east-asian:normal;fill:#999999;fill-opacity:1;stroke-width:0.264583"
         d="m 115.43843,269.63367 v -0.88195 q 0,-0.5209 0.2949,-0.81304 0.2949,-0.29215 0.87919,-0.36105 -0.58429,-0.0689 -0.87919,-0.3638 -0.2949,-0.2949 -0.2949,-0.8158 v -0.88194 h 1.17409 v 1.1796 q 0,0.23978 0.17363,0.41341 0.17364,0.17088 0.41617,0.17088 0.23978,0 0.41341,-0.17088 0.17639,-0.17363 0.17639,-0.41341 v -1.1796 h 1.17409 v 0.88194 q 0,0.5209 -0.2949,0.8158 -0.29214,0.2949 -0.87919,0.3638 0.58705,0.0689 0.87919,0.3638 0.2949,0.29215 0.2949,0.81029 v 0.88195 h -1.17409 v -1.17409 q 0,-0.24254 -0.17639,-0.41617 -0.17363,-0.17363 -0.41341,-0.17363 -0.24253,0 -0.41617,0.17363 -0.17363,0.17363 -0.17363,0.41617 v 1.17409 z" />
      <path
         id="path854"
         style="font-style:normal;font-variant:normal;font-weight:normal;font-stretch:normal;font-size:7.05556px;font-family:Krungthep;-inkscape-font-specification:'Krungthep, Normal';font-variant-ligatures:normal;font-variant-caps:normal;font-variant-numeric:normal;font-variant-east-asian:normal;fill:#999999;fill-opacity:1;stroke-width:0.264583"
         d="m 123.91613,269.63367 h -0.88194 q -0.48232,0 -0.82958,-0.34451 -0.34451,-0.34727 -0.34451,-0.82958 v -2.94349 q 0,-0.48232 0.34451,-0.82683 0.34726,-0.34726 0.82958,-0.34726 h 1.1796 q 0.48231,0 0.82682,0.34726 0.34727,0.34727 0.34727,0.82683 v 2.94349 q 0,1.03904 -1.17409,1.17409 h 1.17409 v 0.5898 h -0.88195 q -0.5209,0 -0.5898,-0.5898 z m -0.88194,-4.11758 v 2.94349 q 0,0.23702 0.17087,0.41065 0.17363,0.17364 0.41893,0.17364 0.24529,0 0.41616,-0.17364 0.17364,-0.17363 0.17364,-0.41065 v -2.94349 q 0,-0.23978 -0.17639,-0.41066 -0.17364,-0.17363 -0.41341,-0.17363 -0.24254,0 -0.41617,0.17363 -0.17363,0.17088 -0.17363,0.41066 z" />
      <path
         id="path856"
         style="font-style:normal;font-variant:normal;font-weight:normal;font-stretch:normal;font-size:7.05556px;font-family:Krungthep;-inkscape-font-specification:'Krungthep, Normal';font-variant-ligatures:normal;font-variant-caps:normal;font-variant-numeric:normal;font-variant-east-asian:normal;fill:#999999;fill-opacity:1;stroke-width:0.264583"
         d="m 130.08699,265.51609 v 4.11758 h -1.17409 v -0.5898 q -0.0689,0.5898 -0.5898,0.5898 h -0.5898 q -0.48232,0 -0.82958,-0.34451 -0.34451,-0.34727 -0.34451,-0.82958 v -2.94349 h 1.17409 v 2.94349 q 0,0.23702 0.17087,0.41065 0.17364,0.17364 0.41893,0.17364 0.24529,0 0.41617,-0.17364 0.17363,-0.17363 0.17363,-0.41065 v -2.94349 z" />
      <path
         id="path858"
         style="font-style:normal;font-variant:normal;font-weight:normal;font-stretch:normal;font-size:7.05556px;font-family:Krungthep;-inkscape-font-specification:'Krungthep, Normal';font-variant-ligatures:normal;font-variant-caps:normal;font-variant-numeric:normal;font-variant-east-asian:normal;fill:#999999;fill-opacity:1;stroke-width:0.264583"
         d="m 134.7861,267.86978 h -2.35369 v 0.5898 q 0,0.23702 0.17088,0.41065 0.17363,0.17364 0.41892,0.17364 h 0.5898 q 0.58429,0 0.58429,-0.58429 h 0.5898 q -0.1378,1.17409 -1.17409,1.17409 h -1.1796 q -0.48231,0 -0.82958,-0.34451 -0.34451,-0.34727 -0.34451,-0.82958 v -1.76389 q 0,-0.48783 0.34727,-0.83234 0.34726,-0.34726 0.82682,-0.34726 h 1.1796 q 0.48231,0 0.82682,0.35002 0.34727,0.34726 0.34727,0.82958 z m -2.35369,-0.5898 h 1.1796 v -0.58429 q 0,-0.24254 -0.17639,-0.41617 -0.17363,-0.17363 -0.41341,-0.17363 -0.24254,0 -0.41617,0.17363 -0.17363,0.17363 -0.17363,0.41617 z" />
      <path
         id="path860"
         style="font-style:normal;font-variant:normal;font-weight:normal;font-stretch:normal;font-size:7.05556px;font-family:Krungthep;-inkscape-font-specification:'Krungthep, Normal';font-variant-ligatures:normal;font-variant-caps:normal;font-variant-numeric:normal;font-variant-east-asian:normal;fill:#999999;fill-opacity:1;stroke-width:0.264583"
         d="m 138.89541,266.69569 h -0.58428 q -0.0772,-0.5898 -0.55673,-0.5898 -0.31144,0 -0.46853,0.12402 -0.1571,0.12127 -0.1571,0.3638 0,0.25356 0.85714,0.71107 0.69729,0.37483 0.80202,0.62287 0.10748,0.2453 0.10748,0.52366 0,0.49058 -0.34726,0.83785 -0.34451,0.34451 -0.82682,0.34451 h -0.58981 q -1.17408,0 -1.17408,-1.17409 h 0.5898 q 0.0689,0.58704 0.55121,0.58704 0.31144,0 0.46854,-0.12402 0.15709,-0.12402 0.15709,-0.36656 0,-0.24805 -0.85438,-0.71107 -0.70005,-0.37207 -0.80753,-0.62012 -0.10473,-0.24804 -0.10473,-0.52365 0,-0.49334 0.34726,-0.83785 0.34727,-0.34726 0.82682,-0.34726 h 0.58981 q 1.10243,0 1.17408,1.1796 z" />
      <path
         id="path862"
         style="font-style:normal;font-variant:normal;font-weight:normal;font-stretch:normal;font-size:7.05556px;font-family:Krungthep;-inkscape-font-specification:'Krungthep, Normal';font-variant-ligatures:normal;font-variant-caps:normal;font-variant-numeric:normal;font-variant-east-asian:normal;fill:#999999;fill-opacity:1;stroke-width:0.264583"
         d="m 140.66757,264.342 h 1.17409 v 1.17409 h 0.5898 v 0.5898 h -0.5898 v 2.35369 q 0,0.28387 0.18741,0.43546 0.18742,0.14883 0.34727,0.14883 h 0.0551 v 0.5898 h -0.5898 q -0.48507,0 -0.82958,-0.34451 -0.34451,-0.34727 -0.34451,-0.82958 v -2.35369 h -0.5898 v -0.5898 h 0.5898 z" />
    </g>
  </g>
</svg>
